<svg width="36" height="35" viewBox="0 0 36 35" fill="none" xmlns="http://www.w3.org/2000/svg">
<path d="M33 10.3333V5.66667C33 4.42899 32.5786 3.242 31.8284 2.36683C31.0783 1.49167 30.0609 1 29 1H5C3.93913 1 2.92172 1.49167 2.17157 2.36683C1.42143 3.242 1 4.42899 1 5.66667V17.3333C1 18.571 1.42143 19.758 2.17157 20.6332C2.92172 21.5083 3.93913 22 5 22H13M21 33.6667V24.3333C21 23.0957 21.4214 21.9087 22.1716 21.0335C22.9217 20.1583 23.9391 19.6667 25 19.6667C26.0609 19.6667 27.0783 20.1583 27.8284 21.0335C28.5786 21.9087 29 23.0957 29 24.3333V33.6667M21 29H29M35 19.6667V33.6667" stroke="black" stroke-width="2" stroke-linecap="round" stroke-linejoin="round"/>
</svg>
