<svg width="33" height="34" viewBox="0 0 33 34" fill="none" xmlns="http://www.w3.org/2000/svg">
<path d="M0 1.40625C0 1.03329 0.144865 0.675604 0.402728 0.411881C0.660591 0.148158 1.01033 0 1.375 0C1.73967 0 2.08941 0.148158 2.34727 0.411881C2.60513 0.675604 2.75 1.03329 2.75 1.40625V30.9375H31.625C31.9897 30.9375 32.3394 31.0857 32.5973 31.3494C32.8551 31.6131 33 31.9708 33 32.3438C33 32.7167 32.8551 33.0744 32.5973 33.3381C32.3394 33.6018 31.9897 33.75 31.625 33.75H1.375C1.01033 33.75 0.660591 33.6018 0.402728 33.3381C0.144865 33.0744 0 32.7167 0 32.3438V1.40625ZM30.25 7.03125C30.25 6.77009 30.1789 6.51409 30.0446 6.29194C29.9104 6.06979 29.7183 5.89025 29.4899 5.77346C29.2615 5.65667 29.0058 5.60723 28.7515 5.63068C28.4972 5.65414 28.2543 5.74956 28.05 5.90625L17.7833 13.7813L10.78 9.57C10.5826 9.45114 10.3593 9.38459 10.1304 9.37641C9.90148 9.36822 9.67419 9.41865 9.46917 9.52313L4.58333 12.0206V29.0625H30.25V7.03125Z" fill="black"/>
</svg>
