<svg width="40" height="35" viewBox="0 0 40 35" fill="none" xmlns="http://www.w3.org/2000/svg">
<path d="M15.2966 32.5615H24.7035V20.6927C24.7035 19.9429 24.2144 19.4537 23.4645 19.4537H16.5519C15.7856 19.4537 15.2966 19.9429 15.2966 20.6927V32.5615ZM8.92206 34.2407H30.9802C33.2953 34.2407 34.6484 32.9202 34.6484 30.6377V12.6227L32.0236 10.8294V29.9693C32.0236 31.029 31.4531 31.6159 30.426 31.6159H9.47637C8.43297 31.6159 7.86235 31.029 7.86235 29.9693V10.8457L5.23754 12.6227V30.6377C5.23754 32.9202 6.59071 34.2407 8.92206 34.2407ZM0.542236 16.0952C0.542236 16.7637 1.06394 17.3995 1.9443 17.3995C2.4008 17.3995 2.77577 17.1551 3.11813 16.8778L19.4375 3.1832C19.7962 2.85713 20.2364 2.85713 20.5952 3.1832L36.9145 16.8778C37.2406 17.1551 37.6156 17.3995 38.0721 17.3995C38.8383 17.3995 39.4579 16.9268 39.4579 16.1442C39.4579 15.6551 39.2949 15.3291 38.9525 15.0356L21.9809 0.770324C20.7745 -0.256775 19.2745 -0.256775 18.0518 0.770324L1.06394 15.0356C0.705269 15.3291 0.542236 15.7203 0.542236 16.0952ZM30.5563 8.74256L34.6484 12.1988V4.66677C34.6484 3.94944 34.1919 3.49295 33.4746 3.49295H31.7302C31.0292 3.49295 30.5563 3.94944 30.5563 4.66677V8.74256Z" fill="black" fill-opacity="0.85"/>
</svg>
