<svg width="37" height="36" viewBox="0 0 37 36" fill="none" xmlns="http://www.w3.org/2000/svg">
<path d="M18.5 14.25C19.3043 14.25 20.1008 14.0916 20.8439 13.7838C21.5871 13.476 22.2623 13.0248 22.831 12.456C23.3998 11.8873 23.851 11.2121 24.1588 10.4689C24.4666 9.72582 24.625 8.92935 24.625 8.125C24.625 7.32065 24.4666 6.52418 24.1588 5.78106C23.851 5.03794 23.3998 4.36273 22.831 3.79397C22.2623 3.22521 21.5871 2.77405 20.8439 2.46624C20.1008 2.15843 19.3043 2 18.5 2C16.8755 2 15.3176 2.64531 14.169 3.79397C13.0203 4.94263 12.375 6.50055 12.375 8.125C12.375 9.74945 13.0203 11.3074 14.169 12.456C15.3176 13.6047 16.8755 14.25 18.5 14.25ZM2.75 32.45V33.5H34.25V32.45C34.25 28.53 34.25 26.57 33.487 25.072C32.8159 23.7549 31.7451 22.6841 30.428 22.013C28.93 21.25 26.97 21.25 23.05 21.25H13.95C10.03 21.25 8.07 21.25 6.572 22.013C5.25492 22.6841 4.1841 23.7549 3.513 25.072C2.75 26.57 2.75 28.53 2.75 32.45Z" stroke="black" stroke-width="4" stroke-linecap="round" stroke-linejoin="round"/>
</svg>
