<svg width="33" height="37" viewBox="0 0 33 37" fill="none" xmlns="http://www.w3.org/2000/svg">
<path fill-rule="evenodd" clip-rule="evenodd" d="M7.76471 0C8.24016 5.97778e-05 8.69907 0.166428 9.05437 0.467549C9.40967 0.76867 9.63667 1.1836 9.69229 1.63364L9.70588 1.8501V5.55031C11.1913 5.55023 12.6206 6.09114 13.7013 7.06237C14.7821 8.03359 15.4326 9.36172 15.5197 10.775L15.5294 11.1006V22.2012C15.5295 23.6169 14.962 24.9792 13.9429 26.0092C12.9239 27.0393 11.5304 27.6592 10.0475 27.7423L9.70588 27.7515V35.1519C9.70533 35.6235 9.51588 36.0771 9.17624 36.4199C8.83659 36.7628 8.37238 36.9692 7.87847 36.9968C7.38455 37.0245 6.8982 36.8713 6.5188 36.5686C6.13939 36.266 5.89555 35.8367 5.83712 35.3684L5.82353 35.1519V27.7515C4.33812 27.7516 2.90882 27.2107 1.82808 26.2395C0.747339 25.2683 0.0968501 23.9401 0.00970611 22.5268L9.04675e-09 22.2012V11.1006C-8.27363e-05 9.6849 0.567455 8.32266 1.58649 7.29262C2.60553 6.26258 3.99903 5.64261 5.48188 5.55956L5.82353 5.55031V1.8501C5.82353 1.35942 6.02805 0.888844 6.39209 0.541882C6.75613 0.194921 7.24987 0 7.76471 0ZM25.2353 0C25.7108 5.97778e-05 26.1697 0.166428 26.525 0.467549C26.8803 0.76867 27.1073 1.1836 27.1629 1.63364L27.1765 1.8501V9.25051C28.6619 9.25043 30.0912 9.79134 31.1719 10.7626C32.2527 11.7338 32.9032 13.0619 32.9903 14.4752L33 14.8008V25.9014C33.0001 27.3172 32.4325 28.6794 31.4135 29.7094C30.3945 30.7395 29.001 31.3594 27.5181 31.4425L27.1765 31.4517V35.1519C27.1759 35.6235 26.9865 36.0771 26.6468 36.4199C26.3072 36.7628 25.843 36.9692 25.3491 36.9968C24.8551 37.0245 24.3688 36.8713 23.9894 36.5686C23.61 36.266 23.3661 35.8367 23.3077 35.3684L23.2941 35.1519V31.4517C21.8087 31.4518 20.3794 30.9109 19.2987 29.9397C18.2179 28.9685 17.5674 27.6403 17.4803 26.2271L17.4706 25.9014V14.8008C17.4705 13.3851 18.038 12.0229 19.0571 10.9928C20.0761 9.96279 21.4696 9.34282 22.9525 9.25976L23.2941 9.25051V1.8501C23.2941 1.35942 23.4986 0.888844 23.8627 0.541882C24.2267 0.194921 24.7205 0 25.2353 0ZM27.1765 12.9507H23.2941C22.8187 12.9508 22.3598 13.1171 22.0045 13.4183C21.6492 13.7194 21.4222 14.1343 21.3665 14.5844L21.3529 14.8008V25.9014C21.353 26.3546 21.5276 26.792 21.8435 27.1306C22.1595 27.4692 22.5948 27.6856 23.067 27.7386L23.2941 27.7515H27.1765C27.6519 27.7515 28.1108 27.5851 28.4661 27.284C28.8214 26.9829 29.0484 26.5679 29.1041 26.1179L29.1176 25.9014V14.8008C29.1176 14.3477 28.943 13.9103 28.6271 13.5717C28.3111 13.233 27.8758 13.0167 27.4036 12.9637L27.1765 12.9507ZM9.70588 9.25051H5.82353C5.34807 9.25057 4.88917 9.41694 4.53387 9.71806C4.17856 10.0192 3.95157 10.4341 3.89594 10.8842L3.88235 11.1006V22.2012C3.88242 22.6544 4.05697 23.0918 4.37292 23.4304C4.68886 23.769 5.12422 23.9854 5.59641 24.0384L5.82353 24.0513H9.70588C10.1813 24.0513 10.6402 23.8849 10.9955 23.5838C11.3508 23.2827 11.5778 22.8677 11.6335 22.4177L11.6471 22.2012V11.1006C11.647 10.6475 11.4724 10.2101 11.1565 9.87146C10.8405 9.53283 10.4052 9.31648 9.933 9.26346L9.70588 9.25051Z" fill="black"/>
</svg>
